<?xml version="1.0" encoding="UTF-8" ?>
<svg xmlns="http://www.w3.org/2000/svg" height="100%" width="100%">
  <title>長方形の描き方</title>
  <g fill="red" stroke="blue" stroke-width="10">
    <g transform="translate(20,10)">
      <rect x="0" y="0" width="150" height="50"/>
    </g>
    <g transform="translate(20,110)">
      <polygon points="0,0 150,0 150,50 0,50" />
    </g>
    <g transform="translate(210,110)">
      <polyline points="0,0 150,0 150,50 0,50"/>
    </g>
    <g transform="translate(20,210)">
      <path d="M0,0 150,0 150,50 0,50 0,0"/>
    </g>
    <g transform="translate(210,210)">
      <path d="M0,0 150,0 150,50 0,50 z"/>
    </g>
    <g transform="translate(20,310)">
      <path d="M0,0 l150,0 0,50 -150,0 z"/>
    </g>
  </g>
</svg>
